<svg width="45" height="45" viewBox="0 0 45 45" fill="none" xmlns="http://www.w3.org/2000/svg">
<g clip-path="url(#clip0_56_49)">
<path d="M10.639 1.49012V15.4371H20.1159V1.25171H29.5629M15.3774 1.25171V10.7285" stroke="#BF3284" stroke-width="0.655629" stroke-linejoin="round"/>
<path d="M10.8179 20.1457H29.5629V34.2715M15.3477 24.8841H24.8245M24.8245 15.2583V5.99005H38.9801V1.37085" stroke="#BF3284" stroke-width="0.655629" stroke-linejoin="round"/>
<path d="M43.6887 15.3179V20.1457H34.2715V35.851M5.96021 24.7053V5.84106M1.2218 10.5199V19.9669" stroke="#BF3284" stroke-width="0.655629" stroke-linejoin="round"/>
<path d="M43.7186 5.99023V10.6988H29.563V15.318" stroke="#BF3284" stroke-width="0.655629" stroke-linejoin="round"/>
<path d="M34.1821 15.4072H38.8609" stroke="#BF3284" stroke-width="0.655629" stroke-linejoin="round"/>
<path d="M10.6689 2.50331C11.3602 2.50331 11.9205 1.94293 11.9205 1.25166C11.9205 0.560385 11.3602 0 10.6689 0C9.97762 0 9.41724 0.560385 9.41724 1.25166C9.41724 1.94293 9.97762 2.50331 10.6689 2.50331Z" fill="#BF3284"/>
<path d="M15.3775 2.50331C16.0688 2.50331 16.6292 1.94293 16.6292 1.25166C16.6292 0.560385 16.0688 0 15.3775 0C14.6862 0 14.1259 0.560385 14.1259 1.25166C14.1259 1.94293 14.6862 2.50331 15.3775 2.50331Z" fill="#BF3284"/>
<path d="M15.3775 11.9205C16.0688 11.9205 16.6292 11.3602 16.6292 10.6689C16.6292 9.97762 16.0688 9.41724 15.3775 9.41724C14.6862 9.41724 14.1259 9.97762 14.1259 10.6689C14.1259 11.3602 14.6862 11.9205 15.3775 11.9205Z" fill="#BF3284"/>
<path d="M10.6093 21.3974C11.3006 21.3974 11.861 20.837 11.861 20.1457C11.861 19.4544 11.3006 18.894 10.6093 18.894C9.91805 18.894 9.35767 19.4544 9.35767 20.1457C9.35767 20.837 9.91805 21.3974 10.6093 21.3974Z" fill="#BF3284"/>
<path d="M15.3775 26.1059C16.0688 26.1059 16.6292 25.5455 16.6292 24.8542C16.6292 24.1629 16.0688 23.6025 15.3775 23.6025C14.6862 23.6025 14.1259 24.1629 14.1259 24.8542C14.1259 25.5455 14.6862 26.1059 15.3775 26.1059Z" fill="#BF3284"/>
<path d="M5.96027 26.1059C6.65154 26.1059 7.21193 25.5455 7.21193 24.8542C7.21193 24.1629 6.65154 23.6025 5.96027 23.6025C5.269 23.6025 4.70862 24.1629 4.70862 24.8542C4.70862 25.5455 5.269 26.1059 5.96027 26.1059Z" fill="#BF3284"/>
<path d="M1.25166 21.3974C1.94293 21.3974 2.50331 20.837 2.50331 20.1457C2.50331 19.4544 1.94293 18.894 1.25166 18.894C0.560385 18.894 0 19.4544 0 20.1457C0 20.837 0.560385 21.3974 1.25166 21.3974Z" fill="#BF3284"/>
<path d="M1.25166 11.9801C1.94293 11.9801 2.50331 11.4197 2.50331 10.7285C2.50331 10.0372 1.94293 9.47681 1.25166 9.47681C0.560385 9.47681 0 10.0372 0 10.7285C0 11.4197 0.560385 11.9801 1.25166 11.9801Z" fill="#BF3284"/>
<path d="M5.96027 7.21205C6.65154 7.21205 7.21193 6.65167 7.21193 5.9604C7.21193 5.26913 6.65154 4.70874 5.96027 4.70874C5.269 4.70874 4.70862 5.26913 4.70862 5.9604C4.70862 6.65167 5.269 7.21205 5.96027 7.21205Z" fill="#BF3284"/>
<path d="M24.8543 26.1059C25.5456 26.1059 26.106 25.5455 26.106 24.8542C26.106 24.1629 25.5456 23.6025 24.8543 23.6025C24.163 23.6025 23.6027 24.1629 23.6027 24.8542C23.6027 25.5455 24.163 26.1059 24.8543 26.1059Z" fill="#BF3284"/>
<path d="M29.5629 35.5827C30.2542 35.5827 30.8146 35.0223 30.8146 34.331C30.8146 33.6397 30.2542 33.0793 29.5629 33.0793C28.8717 33.0793 28.3113 33.6397 28.3113 34.331C28.3113 35.0223 28.8717 35.5827 29.5629 35.5827Z" fill="#BF3284"/>
<path d="M34.2716 37.1325C34.9628 37.1325 35.5232 36.5721 35.5232 35.8808C35.5232 35.1895 34.9628 34.6292 34.2716 34.6292C33.5803 34.6292 33.0199 35.1895 33.0199 35.8808C33.0199 36.5721 33.5803 37.1325 34.2716 37.1325Z" fill="#BF3284"/>
<path d="M29.5629 2.50331C30.2542 2.50331 30.8146 1.94293 30.8146 1.25166C30.8146 0.560385 30.2542 0 29.5629 0C28.8717 0 28.3113 0.560385 28.3113 1.25166C28.3113 1.94293 28.8717 2.50331 29.5629 2.50331Z" fill="#BF3284"/>
<path d="M24.8543 16.6889C25.5456 16.6889 26.106 16.1285 26.106 15.4372C26.106 14.7459 25.5456 14.1855 24.8543 14.1855C24.163 14.1855 23.6027 14.7459 23.6027 15.4372C23.6027 16.1285 24.163 16.6889 24.8543 16.6889Z" fill="#BF3284"/>
<path d="M29.5629 16.6889C30.2542 16.6889 30.8146 16.1285 30.8146 15.4372C30.8146 14.7459 30.2542 14.1855 29.5629 14.1855C28.8717 14.1855 28.3113 14.7459 28.3113 15.4372C28.3113 16.1285 28.8717 16.6889 29.5629 16.6889Z" fill="#BF3284"/>
<path d="M29.5629 16.6889C30.2542 16.6889 30.8146 16.1285 30.8146 15.4372C30.8146 14.7459 30.2542 14.1855 29.5629 14.1855C28.8717 14.1855 28.3113 14.7459 28.3113 15.4372C28.3113 16.1285 28.8717 16.6889 29.5629 16.6889Z" fill="#BF3284"/>
<path d="M34.2716 16.6889C34.9628 16.6889 35.5232 16.1285 35.5232 15.4372C35.5232 14.7459 34.9628 14.1855 34.2716 14.1855C33.5803 14.1855 33.0199 14.7459 33.0199 15.4372C33.0199 16.1285 33.5803 16.6889 34.2716 16.6889Z" fill="#BF3284"/>
<path d="M38.9802 16.6889C39.6714 16.6889 40.2318 16.1285 40.2318 15.4372C40.2318 14.7459 39.6714 14.1855 38.9802 14.1855C38.2889 14.1855 37.7285 14.7459 37.7285 15.4372C37.7285 16.1285 38.2889 16.6889 38.9802 16.6889Z" fill="#BF3284"/>
<path d="M38.9802 2.50331C39.6714 2.50331 40.2318 1.94293 40.2318 1.25166C40.2318 0.560385 39.6714 0 38.9802 0C38.2889 0 37.7285 0.560385 37.7285 1.25166C37.7285 1.94293 38.2889 2.50331 38.9802 2.50331Z" fill="#BF3284"/>
<path d="M43.7484 7.27138C44.4396 7.27138 45 6.71099 45 6.01972C45 5.32845 44.4396 4.76807 43.7484 4.76807C43.0571 4.76807 42.4967 5.32845 42.4967 6.01972C42.4967 6.71099 43.0571 7.27138 43.7484 7.27138Z" fill="#BF3284"/>
<path d="M43.6888 16.6889C44.3801 16.6889 44.9404 16.1285 44.9404 15.4372C44.9404 14.7459 44.3801 14.1855 43.6888 14.1855C42.9975 14.1855 42.4371 14.7459 42.4371 15.4372C42.4371 16.1285 42.9975 16.6889 43.6888 16.6889Z" fill="#BF3284"/>
</g>
<defs>
<clipPath id="clip0_56_49">
<rect width="45" height="44.2848" fill="white"/>
</clipPath>
</defs>
</svg>
