<svg width="49" height="49" viewBox="0 0 49 49" fill="none" xmlns="http://www.w3.org/2000/svg">
<circle cx="24.5" cy="24.5" r="24.5" fill="#191919"/>
<path d="M36.125 14.8125H12.875C12.6181 14.8125 12.3717 14.9146 12.19 15.0962C12.0083 15.2779 11.9062 15.5243 11.9062 15.7812V32.25C11.9062 32.7639 12.1104 33.2567 12.4737 33.62C12.8371 33.9834 13.3299 34.1875 13.8438 34.1875H35.1562C35.6701 34.1875 36.1629 33.9834 36.5263 33.62C36.8896 33.2567 37.0938 32.7639 37.0938 32.25V15.7812C37.0938 15.5243 36.9917 15.2779 36.81 15.0962C36.6283 14.9146 36.3819 14.8125 36.125 14.8125ZM33.6341 16.75L24.5 25.1236L15.3659 16.75H33.6341ZM35.1562 32.25H13.8438V17.9839L23.8449 27.152C24.0236 27.316 24.2574 27.4071 24.5 27.4071C24.7426 27.4071 24.9764 27.316 25.1551 27.152L35.1562 17.9839V32.25Z" fill="#FDFBEE"/>
</svg>
