<svg width="261" height="301" viewBox="0 0 261 301" fill="none" xmlns="http://www.w3.org/2000/svg">
<path d="M206.6 300.337C186.408 300.337 168.045 289.078 158.73 270.994C148.472 251.078 128.104 239.022 106.38 239.022C102.637 239.022 98.8342 239.377 95.0318 240.116C90.0208 241.091 84.833 241.593 79.6746 241.593C35.7253 241.593 0 205.75 0 161.722C0 117.694 35.7548 81.8509 79.6746 81.8509C83.0054 81.8509 86.3363 82.0577 89.6081 82.4714C92.0841 82.7669 94.5307 82.9146 96.9478 82.9146C125.776 82.9146 150.889 61.728 155.193 32.4153C157.875 13.9176 173.999 0 192.657 0C213.556 0 230.564 17.0498 230.564 38.0001C230.564 55.3749 218.331 70.9177 201.471 74.966C170.285 82.4419 150.772 113.557 157.581 144.968L157.669 145.44C162.886 171.325 184.61 190.591 210.874 192.63C238.641 194.817 260.394 218.427 260.394 246.41C260.394 276.136 236.253 300.337 206.6 300.337Z" fill="url(#paint0_linear_44_66)"/>
<defs>
<linearGradient id="paint0_linear_44_66" x1="46.1162" y1="66.508" x2="286.718" y2="221.362" gradientUnits="userSpaceOnUse">
<stop stop-color="#BF3284"/>
<stop offset="1" stop-color="#3878C2"/>
</linearGradient>
</defs>
</svg>
