<svg width="747" height="107" viewBox="0 0 747 107" fill="none" xmlns="http://www.w3.org/2000/svg">
<path d="M35.8496 16.2751C52.7702 16.2752 61.4697 25.9303 61.4697 25.9303L53.7256 38.5485C53.6544 38.4838 46.034 31.5701 36.6143 31.57C23.5175 31.57 17.3039 41.2255 17.3037 51.0719C17.3037 61.2053 23.9954 71.6256 36.6143 71.6256C46.901 71.6255 54.7204 63.2745 54.7773 63.2135L63.3818 75.4499C63.3818 75.4499 53.7262 86.9214 35.8496 86.9215C14.4358 86.9215 3.69357e-05 71.7214 0 51.4547C0 31.5704 15.2961 16.2751 35.8496 16.2751ZM91.5449 36.7467C87.9637 40.2711 85.7344 45.3434 85.7344 51.1676C85.7344 62.8306 93.9556 71.6256 104.185 71.6256C114.413 71.6256 122.635 62.8305 122.635 51.1676C122.635 45.3589 120.417 40.2983 116.853 36.7751L122.756 21.0397C133.277 27.0404 139.938 38.1545 139.938 51.1676C139.938 71.2431 124.834 86.9215 104.185 86.9215C83.5355 86.9215 68.4307 71.2431 68.4307 51.1676C68.4307 38.1411 75.1059 27.0175 85.6455 21.0211L91.5449 36.7467ZM312.56 16.2751C329.469 16.2751 338.168 25.9176 338.18 25.9303L330.437 38.5485C330.384 38.501 322.756 31.57 313.324 31.57C300.228 31.5702 294.014 41.2256 294.014 51.0719C294.014 61.2052 300.706 71.6254 313.324 71.6256C323.626 71.6256 331.454 63.2505 331.488 63.2135L340.092 75.4499C340.049 75.5009 330.396 86.9215 312.56 86.9215C291.146 86.9214 276.711 71.7213 276.711 51.4547C276.711 31.5705 292.006 16.2752 312.56 16.2751ZM187.197 49.3512C189.869 53.8366 192.923 60.9897 192.934 61.0143H193.125C193.122 60.9849 192.36 53.6445 192.36 49.3512V17.4215H209.09V85.7741H192.265L173.24 53.9401C170.564 49.447 167.505 42.277 167.505 42.277H167.313C167.313 42.277 168.078 49.6382 168.078 53.9401V85.7741H151.349V17.4215H168.27L187.197 49.3512ZM268.021 31.7614H241.924V44.1891H262.764V58.529H241.924V71.4342H269.36V85.7741H225.194V17.4215H268.021V31.7614ZM400.771 31.7614H380.025V85.7741H363.296V31.7614H342.552V17.4215H400.771V31.7614ZM461.198 85.7741H443.99L439.784 71.4342H418.466L414.354 85.7741H397.147L420.378 17.4215H437.968L461.198 85.7741ZM429.077 33.0045C429.068 33.0483 427.544 40.4731 426.305 44.7624L422.385 58.0504H435.864L432.04 44.7624C430.802 40.4763 429.28 33.0594 429.269 33.0045H429.077Z" fill="#BF3284"/>
<rect x="96.2797" y="6.79266" width="15.8495" height="25.5533" fill="#BF3284"/>
<g clip-path="url(#clip0_1_18)">
<path d="M545.403 106.742C538.227 106.742 531.7 102.74 528.39 96.3132C524.744 89.2349 517.505 84.9501 509.784 84.9501C508.454 84.9501 507.103 85.0761 505.751 85.3387C503.97 85.6852 502.126 85.8637 500.293 85.8637C484.673 85.8637 471.976 73.1249 471.976 57.477C471.976 41.8292 484.684 29.0903 500.293 29.0903C501.477 29.0903 502.661 29.1638 503.824 29.3109C504.704 29.4159 505.573 29.4684 506.432 29.4684C516.678 29.4684 525.603 21.9385 527.133 11.5206C528.086 4.94641 533.817 0 540.448 0C547.876 0 553.92 6.05961 553.92 13.5055C553.92 19.6806 549.573 25.2046 543.58 26.6434C532.497 29.3004 525.561 40.3589 527.981 51.5224L528.013 51.6905C529.867 60.8902 537.588 67.7374 546.922 68.4621C556.791 69.2392 564.522 77.6302 564.522 87.5756C564.522 98.1405 555.942 106.742 545.403 106.742Z" fill="url(#paint0_linear_1_18)"/>
<path d="M547.465 57.0669C542.992 57.0669 539.357 53.4227 539.357 48.9384C539.357 44.454 542.992 40.8099 547.465 40.8099C551.939 40.8099 555.574 44.454 555.574 48.9384C555.574 53.4227 551.939 57.0669 547.465 57.0669Z" fill="url(#paint1_linear_1_18)"/>
</g>
<path d="M578.837 85.7742V17.4247H607.228C620.516 17.4247 629.502 27.1753 629.502 40.9408C629.502 54.7063 620.516 64.648 607.228 64.648H595.566V85.7742H578.837ZM595.566 50.309H603.787C609.618 50.309 612.486 46.3896 612.486 40.9408C612.486 35.4919 609.618 31.7638 604.074 31.7638H595.566V50.309ZM639.423 85.7742V17.4247H682.249V31.7638H656.152V44.191H676.991V58.53H656.152V71.4352H683.587V85.7742H639.423ZM708.718 85.7742V31.7638H687.974V17.4247H746.191V31.7638H725.447V85.7742H708.718Z" fill="#3878C2"/>
<defs>
<linearGradient id="paint0_linear_1_18" x1="488.366" y1="23.6374" x2="573.878" y2="78.6734" gradientUnits="userSpaceOnUse">
<stop stop-color="#BF3284"/>
<stop offset="1" stop-color="#3878C2"/>
</linearGradient>
<linearGradient id="paint1_linear_1_18" x1="539.357" y1="48.9384" x2="555.574" y2="48.9384" gradientUnits="userSpaceOnUse">
<stop stop-color="#894E9D"/>
<stop offset="1" stop-color="#407EB7"/>
</linearGradient>
<clipPath id="clip0_1_18">
<rect width="105.337" height="106.742" fill="white" transform="translate(472.251)"/>
</clipPath>
</defs>
</svg>
