<svg width="49" height="49" viewBox="0 0 49 49" fill="none" xmlns="http://www.w3.org/2000/svg">
<circle cx="24.5" cy="24.5" r="24.5" fill="#191919"/>
<path d="M24.75 19.0962C23.6318 19.0962 22.5387 19.4277 21.6089 20.049C20.6791 20.6703 19.9545 21.5533 19.5265 22.5864C19.0986 23.6195 18.9866 24.7563 19.2048 25.853C19.4229 26.9497 19.9614 27.9572 20.7521 28.7479C21.5428 29.5386 22.5503 30.0771 23.647 30.2952C24.7437 30.5134 25.8805 30.4014 26.9136 29.9735C27.9467 29.5455 28.8297 28.8209 29.451 27.8911C30.0723 26.9613 30.4038 25.8682 30.4038 24.75C30.4023 23.251 29.8061 21.8138 28.7462 20.7538C27.6862 19.6939 26.249 19.0977 24.75 19.0962ZM24.75 28.5192C24.0045 28.5192 23.2758 28.2982 22.6559 27.884C22.0361 27.4698 21.553 26.8812 21.2677 26.1924C20.9824 25.5037 20.9078 24.7458 21.0532 24.0147C21.1986 23.2835 21.5576 22.6119 22.0848 22.0848C22.6119 21.5576 23.2835 21.1986 24.0147 21.0532C24.7458 20.9078 25.5037 20.9824 26.1924 21.2677C26.8812 21.553 27.4698 22.0361 27.884 22.6559C28.2982 23.2758 28.5192 24.0045 28.5192 24.75C28.5192 25.7497 28.1221 26.7084 27.4152 27.4152C26.7084 28.1221 25.7497 28.5192 24.75 28.5192ZM30.4038 12.5H19.0962C17.3473 12.5019 15.6706 13.1974 14.434 14.434C13.1974 15.6706 12.5019 17.3473 12.5 19.0962V30.4038C12.5019 32.1527 13.1974 33.8294 14.434 35.066C15.6706 36.3026 17.3473 36.9981 19.0962 37H30.4038C32.1527 36.9981 33.8294 36.3026 35.066 35.066C36.3026 33.8294 36.9981 32.1527 37 30.4038V19.0962C36.9981 17.3473 36.3026 15.6706 35.066 14.434C33.8294 13.1974 32.1527 12.5019 30.4038 12.5ZM35.1154 30.4038C35.1154 31.6534 34.619 32.8518 33.7354 33.7354C32.8518 34.619 31.6534 35.1154 30.4038 35.1154H19.0962C17.8466 35.1154 16.6482 34.619 15.7646 33.7354C14.881 32.8518 14.3846 31.6534 14.3846 30.4038V19.0962C14.3846 17.8466 14.881 16.6482 15.7646 15.7646C16.6482 14.881 17.8466 14.3846 19.0962 14.3846H30.4038C31.6534 14.3846 32.8518 14.881 33.7354 15.7646C34.619 16.6482 35.1154 17.8466 35.1154 19.0962V30.4038ZM32.2885 18.625C32.2885 18.9046 32.2056 19.1778 32.0503 19.4103C31.8949 19.6427 31.6742 19.8239 31.4159 19.9309C31.1576 20.0378 30.8734 20.0658 30.5992 20.0113C30.3251 19.9568 30.0732 19.8221 29.8755 19.6245C29.6779 19.4268 29.5432 19.1749 29.4887 18.9008C29.4342 18.6266 29.4622 18.3424 29.5691 18.0841C29.6761 17.8258 29.8573 17.6051 30.0897 17.4497C30.3222 17.2944 30.5954 17.2115 30.875 17.2115C31.2499 17.2115 31.6094 17.3605 31.8745 17.6255C32.1395 17.8906 32.2885 18.2501 32.2885 18.625Z" fill="#FDFBEE"/>
</svg>
