<svg width="57" height="57" viewBox="0 0 57 57" fill="none" xmlns="http://www.w3.org/2000/svg">
<g clip-path="url(#clip0_3_17)">
<path d="M39.189 56.96C35.3597 56.96 31.8769 54.8248 30.1104 51.3951C28.1649 47.618 24.302 45.3315 20.182 45.3315C19.472 45.3315 18.7509 45.3988 18.0297 45.5389C17.0794 45.7238 16.0955 45.8191 15.1172 45.8191C6.78203 45.8191 0.00657654 39.0213 0.00657654 30.6712C0.00657654 22.3211 6.78762 15.5233 15.1172 15.5233C15.7489 15.5233 16.3806 15.5626 17.0011 15.641C17.4707 15.6971 17.9347 15.7251 18.3931 15.7251C23.8604 15.7251 28.6233 11.7069 29.4395 6.14769C29.9482 2.63953 33.0061 0 36.5448 0C40.5083 0 43.7339 3.23356 43.7339 7.20686C43.7339 10.5021 41.414 13.4498 38.2163 14.2176C32.3018 15.6354 28.601 21.5365 29.8923 27.4937L29.9091 27.5833C30.8986 32.4925 35.0187 36.1464 39.9996 36.5331C45.2657 36.9478 49.3913 41.4254 49.3913 46.7325C49.3913 52.3702 44.8129 56.96 39.189 56.96Z" fill="#191919"/>
<path d="M40.1364 30.4523C37.7493 30.4523 35.8095 28.5077 35.8095 26.1148C35.8095 23.7218 37.7493 21.7772 40.1364 21.7772C42.5235 21.7772 44.4633 23.7218 44.4633 26.1148C44.4633 28.5077 42.5235 30.4523 40.1364 30.4523Z" fill="#191919"/>
</g>
<defs>
<clipPath id="clip0_3_17">
<rect width="56.2105" height="56.96" fill="white"/>
</clipPath>
</defs>
</svg>
