<svg width="1280" height="3969" viewBox="0 0 1280 3969" fill="none" xmlns="http://www.w3.org/2000/svg">
<g clip-path="url(#clip0_1_3)">
<path d="M-4.76867 2597.17C52.5715 2656.58 71.5963 2742.58 44.8384 2821.34C15.3689 2908.08 37.7383 3002.25 99.4314 3066.17C110.062 3077.19 121.904 3087.37 134.876 3096.46C151.976 3108.43 168.186 3122.27 182.835 3137.45C307.645 3266.76 303.636 3473.67 174.09 3598.7C44.5436 3723.73 -162.458 3720.32 -287.183 3591.09C-296.642 3581.29 -305.493 3570.9 -313.567 3560.1C-319.729 3551.98 -326.242 3544.36 -333.106 3537.25C-414.973 3452.43 -548.631 3438.7 -647.101 3509.28C-709.145 3553.92 -795.884 3546 -848.872 3491.1C-908.221 3429.61 -906.354 3331.15 -844.711 3271.65C-793.588 3222.31 -713.117 3214.16 -653.324 3252.28C-542.764 3322.81 -395.797 3291.86 -322.712 3182.62L-321.572 3181.02C-260.226 3092.16 -265.232 2973.53 -333.817 2890.46C-406.236 2802.55 -398.545 2671.5 -316.209 2592.03C-228.743 2507.61 -88.9794 2509.92 -4.76867 2597.17Z" fill="#BFCC94" fill-opacity="0.13"/>
</g>
<g clip-path="url(#clip1_1_3)">
<path d="M1435.66 3043.59C1478.78 3114.01 1478.73 3202.09 1435.55 3273.19C1388 3351.49 1389.45 3448.27 1435.84 3524.03C1443.84 3537.09 1453.19 3549.59 1463.89 3561.27C1477.99 3576.67 1490.82 3593.69 1501.84 3611.67C1595.69 3764.94 1546.98 3966.07 1393.43 4060.09C1239.89 4154.11 1038.54 4105.96 944.75 3952.8C937.637 3941.18 931.246 3929.12 925.702 3916.83C921.445 3907.56 916.736 3898.72 911.574 3890.29C850.014 3789.75 722.498 3747.41 611.082 3795C540.845 3825.15 457.877 3798.64 418.033 3733.57C373.405 3660.68 396.545 3564.96 469.608 3520.22C530.201 3483.12 610.527 3492.59 660.65 3542.74C753.318 3635.54 903.499 3637.14 998.5 3546.32L999.96 3545C1079.09 3471.53 1099.89 3354.63 1050.91 3258.69C999.246 3157.18 1035.13 3030.9 1132.72 2971.15C1236.39 2907.67 1372.34 2940.18 1435.66 3043.59Z" fill="#BFCC94" fill-opacity="0.13"/>
<path d="M885.943 3195.46C923.907 3230.22 926.446 3289.39 891.606 3327.45C856.767 3365.5 797.603 3368.19 759.639 3333.43C721.675 3298.68 719.136 3239.51 753.976 3201.45C788.815 3163.4 847.979 3160.71 885.943 3195.46Z" fill="#BFCC94" fill-opacity="0.13"/>
</g>
<path d="M237.767 2539.67C155.676 2548.54 76.0743 2510.82 30.2685 2441.39C-20.1763 2364.92 -108.277 2324.84 -196.6 2334.37C-211.82 2336.02 -227.124 2339.13 -242.259 2343.8C-262.204 2349.96 -283.075 2354.28 -304.048 2356.54C-482.73 2375.83 -643.707 2245.78 -663.029 2066.78C-682.35 1887.78 -552.713 1726.36 -374.15 1707.09C-360.608 1705.62 -346.975 1705 -333.491 1705.25C-323.295 1705.36 -313.283 1704.89 -303.456 1703.83C-186.252 1691.18 -93.4452 1594.02 -88.8122 1472.96C-86.0243 1396.57 -26.5791 1332.91 49.2803 1324.73C134.247 1315.55 210.878 1377.41 220.072 1462.59C227.697 1533.23 184.784 1601.79 118.011 1625.64C-5.49968 1669.72 -71.1795 1804.79 -29.7118 1929.51L-29.1448 1931.39C3.42656 2034.34 100.204 2103.14 207.877 2099.9C321.727 2096.61 420.53 2183.05 432.811 2296.82C445.856 2417.68 358.327 2526.66 237.767 2539.67Z" fill="#BFCC94" fill-opacity="0.13"/>
<path d="M150.296 1946.05C98.8263 1946.05 57 1904.12 57 1852.53C57 1800.93 98.8263 1759 150.296 1759C201.765 1759 243.591 1800.93 243.591 1852.53C243.591 1904.12 201.765 1946.05 150.296 1946.05Z" fill="#BFCC94" fill-opacity="0.13"/>
<g clip-path="url(#clip2_1_3)">
<path d="M1584.77 1522.67C1502.68 1531.54 1423.07 1493.82 1377.27 1424.39C1326.82 1347.92 1238.72 1307.84 1150.4 1317.37C1135.18 1319.02 1119.88 1322.13 1104.74 1326.8C1084.8 1332.96 1063.92 1337.28 1042.95 1339.54C864.27 1358.83 703.293 1228.78 683.971 1049.78C664.65 870.777 794.287 709.36 972.85 690.086C986.392 688.625 1000.02 688.004 1013.51 688.25C1023.71 688.365 1033.72 687.892 1043.54 686.831C1160.75 674.18 1253.55 577.021 1258.19 455.957C1260.98 379.574 1320.42 315.914 1396.28 307.726C1481.25 298.555 1557.88 360.41 1567.07 445.586C1574.7 516.227 1531.78 584.787 1465.01 608.645C1341.5 652.725 1275.82 787.792 1317.29 912.509L1317.86 914.392C1350.43 1017.34 1447.2 1086.14 1554.88 1082.9C1668.73 1079.61 1767.53 1166.05 1779.81 1279.82C1792.86 1400.68 1705.33 1509.66 1584.77 1522.67Z" fill="#BFCC94" fill-opacity="0.13"/>
</g>
<g clip-path="url(#clip3_1_3)">
<path d="M208.985 1153.16C126.418 1153.16 51.3231 1107.12 13.2334 1033.17C-28.7135 951.729 -112.005 902.429 -200.84 902.429C-216.149 902.429 -231.698 903.879 -247.247 906.9C-267.738 910.887 -288.953 912.941 -310.047 912.941C-489.768 912.941 -635.859 766.369 -635.859 586.326C-635.859 406.283 -489.647 259.711 -310.047 259.711C-296.426 259.711 -282.806 260.557 -269.426 262.249C-259.301 263.457 -249.296 264.061 -239.412 264.061C-121.527 264.061 -18.8295 177.423 -1.23108 57.5553C9.73779 -18.087 75.6715 -75 151.971 -75C237.432 -75 306.982 -5.2786 306.982 80.3929C306.982 151.444 256.959 215.002 188.012 231.557C60.4838 262.128 -19.3116 389.366 8.53241 517.813L8.89404 519.747C30.2291 625.597 119.065 704.381 226.463 712.719C340.009 721.661 428.966 818.207 428.966 932.637C428.966 1054.2 330.246 1153.16 208.985 1153.16Z" fill="#BFCC94" fill-opacity="0.13"/>
<path d="M229.413 581.608C177.944 581.608 136.118 539.678 136.118 488.082C136.118 436.486 177.944 394.556 229.413 394.556C280.883 394.556 322.709 436.486 322.709 488.082C322.709 539.678 280.883 581.608 229.413 581.608Z" fill="#BFCC94" fill-opacity="0.13"/>
</g>
<defs>
<clipPath id="clip0_1_3">
<rect width="1212" height="1228.16" fill="white" transform="translate(31.9584 4008.38) rotate(-150.032)"/>
</clipPath>
<clipPath id="clip1_1_3">
<rect width="1212" height="1228.16" fill="white" transform="translate(1165.98 4429.28) rotate(-137.528)"/>
</clipPath>
<clipPath id="clip2_1_3">
<rect width="1212" height="1228.16" fill="white" transform="translate(602 418)"/>
</clipPath>
<clipPath id="clip3_1_3">
<rect width="1212" height="1228.16" fill="white" transform="translate(-636 -75)"/>
</clipPath>
</defs>
</svg>
