<svg width="41" height="41" viewBox="0 0 41 41" fill="none" xmlns="http://www.w3.org/2000/svg">
<g clip-path="url(#clip0_56_86)">
<g filter="url(#filter0_iiii_56_86)">
<path d="M26.1028 40.0881L28.0138 39.3497L28.8825 38.9588L29.7077 38.5679L26.1897 30.1421L22.5848 21.5859L13.7681 39.7406L14.6367 40.0881L15.7659 40.3486L16.8083 40.5658L17.8073 40.6961L18.8062 40.783L19.892 40.8264H20.8909L21.9333 40.783L23.0191 40.6961L24.0181 40.5224L26.1028 40.0881Z" fill="#407EB7"/>
<path d="M7.60064 36.3529L19.197 14.3763L17.286 9.9896L16.678 8.7735L16.1133 7.73112L15.7225 7.07964L15.375 6.60189L14.6367 5.73324L13.7246 5.21205L12.7256 4.82116L11.5964 4.604H10.6843L9.75053 4.66915L8.81674 4.7343L7.77436 4.90803L6.90572 5.21205L6.16737 5.73324L5.47246 6.34129L4.77754 7.07964L3.95233 8.12201L3.04025 9.59871L1.99788 11.5097L0.998941 13.7248L0.304025 16.4176L0 18.9801V21.586L0.173729 23.6273L0.608051 25.6686L1.2161 27.6231L2.12818 29.7078L3.25742 31.5754L4.47352 33.2258L5.81992 34.7894L6.68856 35.7015L7.60064 36.3529Z" fill="#407EB7"/>
<path d="M37.1779 8.9036L35.2235 6.38453L32.7044 4.16949L30.0116 2.38877L26.7542 0.998941L24.8866 0.521186L23.2362 0.217161L21.4554 0H19.805L17.9374 0.217161L16.3304 0.521186L17.6334 0.912076L18.8495 1.43326L19.9353 2.12818L20.9777 2.95339L21.8463 3.86547L22.715 4.95127L23.4099 5.99364L24.0179 7.07945L24.626 8.20869L25.1906 9.46822L26.233 11.7701L28.144 16.3739L31.966 25.2341L35.7012 33.964L36.8739 32.4439L37.6991 31.2712L39.0889 28.839L40.1313 25.9725L40.6959 22.9756L40.9565 20.0657L40.5656 17.1557L39.8707 14.2023L39.3495 12.7256L38.7415 11.4227L37.9597 10.0763L37.1779 8.9036Z" fill="#407EB7"/>
</g>
<path d="M36.8041 32.3922L35.723 33.7935L32.046 25.1998L32.0459 25.1995L28.2244 16.3405L28.2239 16.3393L26.3134 11.7367L26.3128 11.7354L26.3122 11.7341L25.27 9.4325L25.2699 9.43215L24.7054 8.17296L24.7041 8.17008L24.7026 8.16731L24.0945 7.03807L24.0942 7.03744L24.0938 7.03681L23.4858 5.95101L23.4842 5.94807L23.4823 5.94527L22.7874 4.90289L22.7853 4.89976L22.7829 4.89681L21.9143 3.81101L21.9119 3.80808L21.9093 3.80536L21.0407 2.89329L21.0365 2.88887L21.0317 2.88509L19.9894 2.05988L19.9859 2.05717L19.9823 2.05482L18.8964 1.3599L18.8905 1.35605L18.8839 1.35323L17.6677 0.832041L17.6632 0.830098L17.6585 0.82868L16.6967 0.540134L17.9507 0.302892L19.8102 0.0866699H21.4503L23.2232 0.302873L24.868 0.605881L26.7263 1.08125L29.9704 2.46537L32.6516 4.23847L35.16 6.44411L37.1075 8.95422L37.886 10.122L38.6645 11.4627L39.2691 12.7584L39.7873 14.2266L40.4802 17.1713L40.8692 20.0674L40.6099 22.9635L40.0473 25.9492L39.0099 28.8021L37.6258 31.2243L36.8041 32.3922ZM28.8453 38.88L27.9803 39.2692L26.0781 40.0042L24.0017 40.4368L23.0082 40.6095L21.928 40.696L20.8891 40.7392H19.8937L18.8117 40.696L17.8166 40.6094L16.8228 40.4798L15.7855 40.2637L15.7837 40.2633L14.6628 40.0046L13.887 39.6943L22.5792 21.796L26.1095 30.1752L26.1096 30.1755L29.5956 38.5246L28.8469 38.8793L28.8453 38.88ZM19.1008 14.3723L7.57027 36.2241L6.74583 35.6352L5.88436 34.7306L4.54154 33.1712L3.32974 31.5267L2.20552 29.6674L1.29767 27.5923L0.692231 25.6463L0.25987 23.6142L0.0869141 21.582V18.9848L0.389645 16.4332L1.08123 13.7533L2.07576 11.5481L3.11544 9.64202L4.02363 8.17158L4.84339 7.13608L5.53288 6.40351L6.22122 5.80121L6.94594 5.28964L7.79606 4.9921L8.82695 4.82028L9.75666 4.75542L10.6874 4.69048H11.5882L12.7015 4.90458L13.687 5.29025L14.5804 5.80071L15.3068 6.65525L15.65 7.12723L16.0379 7.77381L16.601 8.81324L17.2074 10.026L19.1008 14.3723Z" stroke="#407EB7" stroke-width="0.173729"/>
</g>
<defs>
<filter id="filter0_iiii_56_86" x="-0.347458" y="-0.347458" width="41.6515" height="41.5213" filterUnits="userSpaceOnUse" color-interpolation-filters="sRGB">
<feFlood flood-opacity="0" result="BackgroundImageFix"/>
<feBlend mode="normal" in="SourceGraphic" in2="BackgroundImageFix" result="shape"/>
<feColorMatrix in="SourceAlpha" type="matrix" values="0 0 0 0 0 0 0 0 0 0 0 0 0 0 0 0 0 0 127 0" result="hardAlpha"/>
<feOffset dx="-0.347458"/>
<feGaussianBlur stdDeviation="0.173729"/>
<feComposite in2="hardAlpha" operator="arithmetic" k2="-1" k3="1"/>
<feColorMatrix type="matrix" values="0 0 0 0 0 0 0 0 0 0 0 0 0 0 0 0 0 0 0.25 0"/>
<feBlend mode="normal" in2="shape" result="effect1_innerShadow_56_86"/>
<feColorMatrix in="SourceAlpha" type="matrix" values="0 0 0 0 0 0 0 0 0 0 0 0 0 0 0 0 0 0 127 0" result="hardAlpha"/>
<feOffset dy="-0.347458"/>
<feGaussianBlur stdDeviation="0.173729"/>
<feComposite in2="hardAlpha" operator="arithmetic" k2="-1" k3="1"/>
<feColorMatrix type="matrix" values="0 0 0 0 0 0 0 0 0 0 0 0 0 0 0 0 0 0 0.25 0"/>
<feBlend mode="normal" in2="effect1_innerShadow_56_86" result="effect2_innerShadow_56_86"/>
<feColorMatrix in="SourceAlpha" type="matrix" values="0 0 0 0 0 0 0 0 0 0 0 0 0 0 0 0 0 0 127 0" result="hardAlpha"/>
<feOffset dx="0.347458"/>
<feGaussianBlur stdDeviation="0.173729"/>
<feComposite in2="hardAlpha" operator="arithmetic" k2="-1" k3="1"/>
<feColorMatrix type="matrix" values="0 0 0 0 0 0 0 0 0 0 0 0 0 0 0 0 0 0 0.25 0"/>
<feBlend mode="normal" in2="effect2_innerShadow_56_86" result="effect3_innerShadow_56_86"/>
<feColorMatrix in="SourceAlpha" type="matrix" values="0 0 0 0 0 0 0 0 0 0 0 0 0 0 0 0 0 0 127 0" result="hardAlpha"/>
<feOffset dy="0.347458"/>
<feGaussianBlur stdDeviation="0.173729"/>
<feComposite in2="hardAlpha" operator="arithmetic" k2="-1" k3="1"/>
<feColorMatrix type="matrix" values="0 0 0 0 0 0 0 0 0 0 0 0 0 0 0 0 0 0 0.25 0"/>
<feBlend mode="normal" in2="effect3_innerShadow_56_86" result="effect4_innerShadow_56_86"/>
</filter>
<clipPath id="clip0_56_86">
<rect width="41" height="40.8263" fill="white"/>
</clipPath>
</defs>
</svg>
