<svg width="262" height="296" viewBox="0 0 262 296" fill="none" xmlns="http://www.w3.org/2000/svg">
<path d="M62.1559 78.8187C68.1919 74.903 71.7869 71.732 79.3934 70.6985C86.4791 69.7115 94.4089 70.1697 101.516 70.6712C112.362 71.4367 124.37 71.3527 135.021 71.502C141.886 71.598 175.254 68.0017 179.49 70.4597C180.575 72.1862 179.947 76.3152 180.224 78.4102C180.547 80.8559 182.578 81.9417 183.243 84.17C183.957 86.5625 182.369 90.591 184.201 92.6352C186.947 95.7 189.778 98.7145 192.579 101.721C193.153 102.332 196.337 103.076 197.209 103.578C198.869 104.534 200.004 105.712 201.579 106.665C203.212 106.555 208.742 105.899 209.572 106.85C210.982 108.464 212.757 109.651 215.157 109.633C216.949 109.619 219.789 108.641 221.387 109.757C222.927 112.353 221.499 129.02 221.332 133.051C220.924 143.362 220.762 153.68 220.844 163.999C220.949 174.041 221.767 184.897 222.229 194.966C222.642 203.969 223.809 209.843 221.492 218.984C219.114 228.542 213.034 236.762 204.592 241.832C201.183 243.864 196.058 245.564 192.006 245.542C160.826 245.364 129.56 244.459 98.3711 245.129C87.3186 245.367 79.2099 246.929 68.7449 241.784C47.4436 231.312 49.2564 207.827 50.9486 187.748C51.9166 171.223 52.0804 152.559 51.3571 136.092C51.1071 130.911 50.8071 125.731 50.4574 120.556C49.4674 106.564 48.2246 96.0612 56.8654 84.004C58.6039 81.7992 60.0499 80.6452 62.1559 78.8187Z" fill="#FDFCFC"/>
<path d="M107.315 77.8925C128.982 77.5937 150.652 77.91 172.301 78.8407C172.263 83.7355 171.927 85.509 175.073 89.3107C175.135 91.3142 175.171 93.3187 175.18 95.3232C176.845 96.8392 178.328 98.5437 179.598 100.402C180.87 102.277 182.856 106.023 184.442 107.28C187.639 109.815 192.402 109.116 195.156 112.695C196.761 114.498 200.742 113.541 202.481 114.372C206.784 116.428 207.267 116.738 212.069 116.456C212.092 139.224 212.794 162.099 212.339 184.933C212.017 196.698 212.452 208.858 210.587 220.505C208.444 233.864 195.547 234.274 185.019 234.972C177.942 235.437 170.856 235.734 163.765 235.864L163.613 235.872C143.304 236.909 122.453 236.589 102.021 236.142C93.4516 235.954 73.9219 236.702 67.0304 231.087C60.3799 225.665 61.1454 211.601 60.5259 203.339C58.4421 175.547 58.3321 147.495 59.7079 119.641C60.1834 110.68 60.1299 101.519 61.6034 92.6615C62.5961 86.6952 66.5716 81.9825 72.5406 80.6167C83.6281 78.0797 95.9336 78.2385 107.315 77.8925Z" fill="#9C2023"/>
<path d="M119.012 122.583C119.961 122.53 120.912 122.591 121.846 122.765C125.99 123.506 128.038 127.103 128.092 131.078C128.157 135.928 128.089 140.773 128.083 145.623L128.062 174.932L128.077 196.912C128.081 199.028 128.221 206.723 127.8 208.416C127.334 210.22 126.176 211.769 124.578 212.729C120.242 215.344 115.982 214.116 113.48 209.836C102.155 215.366 91.9911 215.766 80.9386 209.192C68.9311 200.907 63.5936 185.798 69.1491 172.068C72.1591 164.59 78.0096 158.61 85.4199 155.437C95.1094 151.388 103.463 152.977 112.735 156.811C112.387 153.381 112.75 147.114 112.694 143.436C112.775 138.707 112.592 133.973 112.884 129.252C113.131 125.251 115.407 123.535 119.012 122.583Z" fill="#FDFCFC"/>
<path d="M96.3859 168.417C104.662 167.802 111.89 173.964 112.593 182.233C113.295 190.502 107.21 197.796 98.9486 198.585C93.5264 199.104 88.2439 196.669 85.1151 192.211C81.9866 187.752 81.4941 181.956 83.8259 177.034C86.1576 172.111 90.9539 168.821 96.3859 168.417Z" fill="#9C2023"/>
<path d="M158.494 153.379C159.423 153.303 160.355 153.265 161.286 153.265C177.077 153.294 188.611 165.299 189.426 180.704C189.891 189.476 179.44 187.958 173.603 187.821C164.764 187.614 155.67 188.18 146.882 187.852C150.266 196.871 159.221 201.578 168.481 197.069C170.678 195.999 172.233 193.087 175.197 192.956C177.945 192.834 179.566 193.63 181.625 195.322C193.145 207.5 161.375 222.78 142.314 207.314C135.911 202.121 131.83 194.6 130.965 186.401C129.131 168.774 141.129 155.219 158.494 153.379Z" fill="#FDFCFC"/>
<path d="M159.639 167.848C165.913 166.93 170.736 170.652 173.81 175.704L162.262 175.709C157.524 175.726 152.724 175.567 147.963 175.554C151.017 170.707 153.983 168.729 159.639 167.848Z" fill="#9C2023"/>
<path d="M167.681 105.867C170.948 105.394 176.552 105.797 179.773 106.71C187.612 108.931 190.777 111.742 194.717 118.36C201.825 119.68 205.819 123.95 204.095 131.966C202.768 138.136 192.216 139.061 189.851 142.675C185.349 149.552 185.901 156.508 175.031 152.787C166.897 149.785 162.659 149.614 154.044 150.413C153.464 150.467 151.531 150.392 151.419 149.906C150.776 147.124 151.239 141.811 150.271 139.231C148.526 135.567 143.929 133.619 140.975 130.806C136.334 126.386 135.872 120.501 140.477 115.808C144.468 111.742 148.907 111.952 154.234 111.99C158.847 107.757 161.386 106.703 167.681 105.867Z" fill="#FDFCFC"/>
<path d="M168.009 108.639C173.976 108.733 193.711 111.131 191.888 120.311C191.727 121.118 188.701 124.325 187.949 125.312C190.27 124.263 194.71 120.378 197.182 123.645C200.273 127.73 197.891 133.24 194.441 136.331C190.522 139.841 188.297 140.869 183.121 140.763C186.446 136.016 188.498 136.87 191.401 129.656C186.858 132.319 184.44 136.638 179.979 138.959C176.903 138.841 173.829 138.066 170.833 137.375C173.143 134.249 175.47 130.987 176.016 127.089C176.051 126.3 176.1 126.192 175.776 125.504C173.776 125.102 170.989 135.173 168.102 136.24C159.443 139.44 156.355 132.996 153.48 126.236C153.265 125.729 152.794 125.241 152.26 125.126C150.585 127.236 153.969 134.983 155.046 137.32C150.807 135.003 146.13 130.059 143.784 125.841C139.737 118.564 145.637 111.651 153.604 114.215C153.416 116.276 153.118 118.739 154.485 120.509C155.547 121.884 157.899 123.522 159.519 122.214C159.968 120.715 158.309 117.988 158.208 116.143C157.884 110.242 163.098 108.9 168.009 108.639Z" fill="#9C2023"/>
<path d="M162.98 138.894C170.235 138.974 179.34 139.968 185.308 144.541C184.287 147.607 183.688 148.634 181.873 151.288L177.88 150.42C169.757 148.316 163.467 148.013 155.172 147.591C154.824 145.068 154.56 142.441 154.273 139.903C157.39 139.193 159.801 139.038 162.98 138.894Z" fill="#9C2023"/>
<path d="M194.02 210.415C198.466 209.524 202.791 212.413 203.67 216.862C204.549 221.31 201.65 225.628 197.199 226.497C192.764 227.362 188.465 224.474 187.588 220.041C186.712 215.608 189.589 211.302 194.02 210.415Z" fill="#FDFCFC"/>
<path d="M193.807 211.906C196.166 211.252 198.694 211.923 200.42 213.66C202.145 215.397 202.798 217.929 202.129 220.284C201.459 222.639 199.571 224.449 197.19 225.018C193.598 225.877 189.981 223.7 189.058 220.124C188.136 216.548 190.248 212.892 193.807 211.906Z" fill="#9C2023"/>
<path d="M192.629 214.335C196.119 214.163 202.762 214.454 197.686 219.483C198.557 220.41 199.558 221.249 199.197 222.59C198.46 222.831 198.667 222.748 197.803 222.57C197.252 221.572 195.985 219.177 194.812 219.114C193.87 220.292 194.853 222.116 193.433 222.724L192.944 222.486C192.439 221.004 192.598 216.004 192.629 214.335Z" fill="#FDFCFC"/>
<path d="M194.304 215.766C195.482 215.781 196.432 215.649 197.286 216.414C197.337 217.271 197.323 217.003 196.889 217.871C195.959 217.936 195.063 218.072 194.352 217.517C194.033 216.66 194.165 216.72 194.304 215.766Z" fill="#9C2023"/>
<path d="M114.219 4.11621C115.767 1.12271 118.601 -0.46774 121.938 0.121435C123.871 0.462735 124.731 1.18571 126.302 2.27096L129.011 1.34046C134.442 -1.69616 138.911 1.01509 141.543 6.04646C141.893 6.71521 142.724 8.62996 143.194 8.93921C144.088 8.55646 144.702 7.08071 145.128 6.19421C147.329 3.17046 150.034 1.42271 153.842 1.63471C158.538 2.25946 160.124 7.04821 161.967 7.44971C162.716 7.61296 164.918 5.72471 165.828 5.40821C171.13 4.88146 172.487 6.04996 175.572 10.3335C176.75 10.1312 180.364 9.37521 181.269 9.58371C187.846 11.098 199.893 15.131 202.787 21.5002C204.422 26.898 201.815 31.3372 196.429 32.921C193.759 34.684 195.126 36.1532 194.26 39.028C193.918 39.7622 193.491 40.7477 193.113 41.436C192.4 42.3122 189.942 44.6662 190.309 45.7112C192.572 52.1555 194.691 56.3637 186.465 58.9695C180.862 60.1147 174.346 57.1217 169.387 54.7475C163.746 52.0465 162.521 50.2012 156.157 49.3012C150.319 48.4757 143.276 47.1822 141.543 40.717C141.381 40.1127 141.114 38.7412 140.84 38.259L140.326 38.2537C139.645 39.3217 139.073 39.5542 138.671 40.901C137.519 44.7677 133.71 46.9657 129.808 46.1397C124.21 44.9545 122.887 46.3022 117.926 48.061C116.855 48.4405 113.311 47.4087 112.034 48.1032C108.073 49.7865 108.373 52.01 103.661 52.0262C99.2894 52.0415 95.0291 45.7607 93.6784 46.17C91.0641 50.9055 90.0559 55.4172 85.4594 58.8927C81.1946 62.117 76.1179 63.5392 70.8524 64.1957L70.6914 64.3745C69.7439 65.4347 69.1986 66.3947 68.3361 67.5C66.1071 70.3552 62.2696 71.807 58.8459 72.9647L58.5989 77.2222C58.3809 79.869 58.5161 80.5005 56.7421 82.6195C54.2586 83.604 51.4891 84.3517 48.9214 85.2222C48.3921 91.0902 45.1429 95.0595 42.0684 99.8132C33.4099 113.201 19.3611 97.4742 11.1056 92.0417C7.96538 89.975 5.19813 89.3222 2.46588 86.5052C-3.78762 80.058 3.25913 71.6102 8.06713 66.7627C12.1499 62.6582 15.5876 61.5262 21.2376 61.546C20.9399 60.9275 20.6599 60.301 20.3974 59.667C16.7166 50.5257 27.8659 42.3775 35.1364 38.899C39.5474 36.7885 43.4936 38.0497 47.7591 39.916C49.9039 28.5982 51.8344 24.0207 63.0214 19.106C65.3481 18.3652 70.2759 17.6442 72.7651 18.171C79.1654 19.7767 75.6036 11.5472 81.9096 10.3952C84.8086 9.86546 88.0074 9.75996 90.8994 10.6967C97.6424 4.05871 98.2909 8.11646 104.838 4.64471C109.022 1.65021 111.533 5.38396 114.219 4.11621Z" fill="#FDFCFC"/>
<path d="M47.7591 39.916C49.9039 28.5982 51.8344 24.0207 63.0214 19.106C63.8554 19.3457 64.3286 19.3857 64.9014 20.0227L64.6406 20.4475C54.2889 23.5942 48.6621 32.8417 50.0584 43.4652C39.0514 35.9285 30.4834 41.675 23.3931 50.8787C17.1666 58.9607 29.7524 64.312 33.1631 70.2022C30.8474 69.2395 28.9709 67.5307 26.8924 66.1867C16.0609 59.1835 7.51938 67.9105 2.97663 77.3657C-0.0418701 83.6492 7.85938 87.4852 11.9746 90.2005C18.1474 94.2732 23.8566 99.3055 30.3859 102.698C37.5114 106.419 43.4361 93.3887 46.0424 88.7735C46.7581 87.506 46.3704 83.1222 47.0161 82.3495C50.6221 81.9817 52.1471 82.5762 54.6514 79.5682C55.7761 78.233 56.2994 76.4927 56.0971 74.7587C55.7831 71.959 54.0084 70.1742 51.9586 68.5002C59.1714 70.4627 67.7324 72.7945 67.6504 61.7492C70.1786 61.839 73.0201 62.0885 75.4759 61.4822C87.9951 58.3907 91.5254 49.2092 91.3501 37.748C94.2454 41.3787 99.1604 49.4385 103.876 49.9922C108.106 50.4885 110.403 47.748 111.489 43.933C116.727 48.6907 121.817 46.8515 123.858 40.2857L123.899 40.151C125.423 42.2945 126.771 43.8682 129.499 44.309C137.733 45.6392 137.931 36.7322 137.942 31.1635C138.963 32.8657 140.166 34.7827 141.096 36.5115C142.816 39.4937 145.159 44.6827 148.522 45.6537C150.112 46.1127 152.174 45.4707 153.585 45.6297C154.737 45.7592 156.146 48.1637 157.672 48.379C159.212 48.596 161.04 48.1007 162.473 47.9857C162.818 47.9582 165.138 50.3092 165.86 50.657C170.944 53.1047 176.524 55.8982 181.899 57.5667C182.595 57.7827 183.945 57.6945 184.628 57.647C185.28 58.2067 185.674 58.5975 186.465 58.9695C180.862 60.1147 174.346 57.1217 169.387 54.7475C163.746 52.0465 162.521 50.2012 156.157 49.3012C150.319 48.4757 143.276 47.1822 141.543 40.717C141.381 40.1127 141.114 38.7412 140.84 38.259L140.326 38.2537C139.645 39.3217 139.073 39.5542 138.671 40.901C137.519 44.7677 133.71 46.9657 129.808 46.1397C124.21 44.9545 122.887 46.3022 117.926 48.061C116.855 48.4405 113.311 47.4087 112.034 48.1032C108.073 49.7865 108.373 52.01 103.661 52.0262C99.2894 52.0415 95.0291 45.7607 93.6784 46.17C91.0641 50.9055 90.0559 55.4172 85.4594 58.8927C81.1946 62.117 76.1179 63.5392 70.8524 64.1957L70.6914 64.3745C69.7439 65.4347 69.1986 66.3947 68.3361 67.5C66.1071 70.3552 62.2696 71.807 58.8459 72.9647L58.5989 77.2222C58.3809 79.869 58.5161 80.5005 56.7421 82.6195C54.2586 83.604 51.4891 84.3517 48.9214 85.2222C48.3921 91.0902 45.1429 95.0595 42.0684 99.8132C33.4099 113.201 19.3611 97.4742 11.1056 92.0417C7.96538 89.975 5.19813 89.3222 2.46588 86.5052C-3.78762 80.058 3.25913 71.6102 8.06713 66.7627C12.1499 62.6582 15.5876 61.5262 21.2376 61.546C20.9399 60.9275 20.6599 60.301 20.3974 59.667C16.7166 50.5257 27.8659 42.3775 35.1364 38.899C39.5474 36.7885 43.4936 38.0497 47.7591 39.916Z" fill="#9C2023"/>
<path d="M114.219 4.11621C115.767 1.12271 118.601 -0.46774 121.938 0.121435C123.871 0.462735 124.731 1.18571 126.302 2.27096L129.011 1.34046C134.442 -1.69616 138.911 1.01509 141.543 6.04646C141.893 6.71521 142.724 8.62996 143.194 8.93921C144.088 8.55646 144.702 7.08071 145.128 6.19421C145.925 6.44821 145.601 6.23046 146.138 6.86746C146.062 7.53621 145.884 7.90596 146.198 8.34021C145.633 10.9587 145.578 14.429 145.505 17.1012C143.738 13.4687 139.797 5.89696 136.739 3.40646C134.881 1.89321 133.118 1.78596 130.845 2.09546L130.575 2.21646C129.748 2.59271 126.804 4.91121 126.538 4.69121C122.503 1.36296 118.353 -0.267138 114.619 5.01746C114.213 6.10171 114.149 6.93921 113.315 7.38371C111.56 7.00021 111.529 4.93196 106.701 5.36071C106.367 4.97296 105.402 4.80896 104.838 4.64471C109.022 1.65021 111.533 5.38396 114.219 4.11621Z" fill="#9C2023"/>
<path d="M104.838 4.64471C105.402 4.80896 106.367 4.97296 106.701 5.36071C105.549 5.69071 104.249 6.03646 103.562 7.04671C99.6031 12.8727 97.7979 3.89896 91.6361 11.2865C91.2816 12.24 90.8824 13.2592 90.5626 14.218C88.2119 12.646 86.4946 11.543 83.5189 12.053C79.6739 12.7122 77.5629 16.6697 78.3811 20.2975C78.4499 20.5985 78.5246 20.898 78.6056 21.1957C73.7341 19.934 69.7076 19.197 64.6406 20.4475L64.9014 20.0227C64.3286 19.3857 63.8554 19.3457 63.0214 19.106C65.3481 18.3652 70.2759 17.6442 72.7651 18.171C79.1654 19.7767 75.6036 11.5472 81.9096 10.3952C84.8086 9.86546 88.0074 9.75996 90.8994 10.6967C97.6424 4.05871 98.2909 8.11646 104.838 4.64471Z" fill="#9C2023"/>
<path d="M165.828 5.40821C171.13 4.88146 172.487 6.04996 175.572 10.3335C176.75 10.1312 180.364 9.37521 181.269 9.58371C187.846 11.098 199.893 15.131 202.787 21.5002L202.727 23.2122L202.461 23.3897L201.762 22.886C201.345 22.1427 200.057 19.722 199.106 19.2262C194.203 16.671 184.619 11.3525 179.28 11.3895C177.126 11.4045 175.52 13.5215 174.559 14.814C173.302 13.834 176.736 10.095 168.151 6.89471C167.201 5.65996 166.911 6.85421 165.768 6.13846L165.828 5.40821Z" fill="#9C2023"/>
<path d="M184.628 57.647C187.779 56.6715 189.94 54.3882 189.993 50.9217C190.105 43.6857 181.147 43.8907 178.15 40.9692L178.311 40.7782C183.966 41.8715 186.058 46.0547 191.83 40.9562L193.113 41.436C192.4 42.3122 189.942 44.6662 190.309 45.7112C192.572 52.1555 194.691 56.3637 186.465 58.9695C185.674 58.5975 185.28 58.2067 184.628 57.647Z" fill="#9C2023"/>
<path d="M145.128 6.19421C147.329 3.17046 150.034 1.42271 153.842 1.63471C158.538 2.25946 160.124 7.04821 161.967 7.44971C162.716 7.61296 164.918 5.72471 165.828 5.40821L165.768 6.13846C166.911 6.85421 167.201 5.65996 168.151 6.89471C163.705 7.31471 162.1 8.40796 160.531 12.6127C159.988 12.2235 159.963 11.9555 159.709 11.299C159.964 6.82271 157.509 4.03871 153.116 3.44971C149.21 3.90946 147.913 4.71646 146.198 8.34021C145.884 7.90596 146.062 7.53621 146.138 6.86746C145.601 6.23046 145.925 6.44821 145.128 6.19421Z" fill="#9C2023"/>
<path d="M193.302 37.501C193.125 28.7112 186.313 30.8515 184.307 27.69L184.466 27.4962C185.862 27.7405 187.614 29.0577 189.008 29.6155C190.729 30.3035 192.482 30.934 194.228 31.5492C195.166 32.5522 195.886 32.3205 196.429 32.921C193.759 34.684 195.126 36.1532 194.26 39.028L193.302 37.501Z" fill="#9C2023"/>
<path d="M202.787 21.5002C204.422 26.898 201.815 31.3372 196.429 32.921C195.886 32.3205 195.166 32.5522 194.228 31.5492C194.677 31.565 195.127 31.5612 195.575 31.5375C197.316 31.4227 198.94 30.619 200.087 29.3042C201.798 27.3392 201.945 25.3285 201.762 22.886L202.461 23.3897L202.727 23.2122L202.787 21.5002Z" fill="#9C2023"/>
<path d="M193.302 37.501L194.26 39.028C193.918 39.7622 193.491 40.7477 193.113 41.436L191.83 40.9562C192.81 39.648 192.926 39.0487 193.302 37.501Z" fill="#9C2023"/>
<path d="M159.384 17.8282C159.358 15.6115 159.334 13.4985 159.709 11.299C159.963 11.9555 159.988 12.2235 160.531 12.6127C160.207 14.2912 159.891 16.216 159.384 17.8282Z" fill="#9C2023"/>
<path d="M68.2499 24.0947C74.2659 23.2302 80.2824 25.666 84.0024 30.4725C87.7224 35.2792 88.5716 41.7142 86.2256 47.3212C83.8799 52.9282 78.7011 56.8415 72.6666 57.567C63.4851 58.6707 55.1241 52.1822 53.9144 43.014C52.7046 33.8457 59.0961 25.4105 68.2499 24.0947Z" fill="#D92127"/>
<path d="M69.0329 29.8335C73.0081 29.245 76.9919 30.8462 79.4544 34.0222C81.9166 37.198 82.4749 41.455 80.9146 45.1585C79.3544 48.862 75.9181 51.4362 71.9256 51.8927C65.8921 52.5825 60.4201 48.3067 59.6306 42.2857C58.8411 36.2645 63.0256 30.7225 69.0329 29.8335Z" fill="#FDFCFC"/>
<path d="M119.802 5.74471C120.835 5.87421 121.981 6.16396 122.755 6.91196C123.207 7.34171 123.457 7.94221 123.444 8.56621C123.342 12.4882 121.978 19.5655 121.62 23.8845C120.955 29.208 120.657 34.6432 119.697 39.9205C119.429 41.395 117.949 42.884 116.576 42.4002C113.618 41.3582 110.424 36.0017 108.652 33.5565C107.947 37.105 108.177 41.9532 106.349 45.116C105.528 46.3565 103.274 46.0345 102.474 45.0392C95.9139 36.8805 89.1114 28.8302 82.8491 20.443C82.4336 19.8867 82.2796 19.4087 82.2964 18.719C82.3164 17.7857 82.7396 16.907 83.4571 16.3097C83.8789 15.956 84.4261 15.7885 84.9736 15.846C87.4569 16.1167 90.6474 20.9465 92.2059 23.0017C95.6824 27.2322 99.1484 31.7802 102.535 36.1065C102.811 33.099 103.074 30.1887 103.485 27.192C102.418 26.03 94.5296 16.486 94.6796 15.5742C96.0656 7.14321 102.786 17.1072 104.653 19.385C104.794 16.9152 104.83 14.408 105.362 11.9887C106.117 8.55271 108.501 8.43196 110.659 10.8067C111.473 12.5305 109.68 22.7107 109.491 25.7722C110.917 27.258 113.406 30.6277 114.889 32.4267C115.755 24.4645 116.652 15.9242 117.897 7.99546C118.081 6.82596 118.815 6.26146 119.802 5.74471Z" fill="#D92127"/>
<path d="M17.5019 67.797C22.7086 67.527 25.6084 69.5622 28.3626 73.902C28.7389 73.7765 29.1196 73.6655 29.5041 73.5687C39.6384 71.0872 47.0724 83.7867 39.8511 91.5822C37.7564 93.8435 36.2439 98.5505 32.7334 99.3017C29.6179 98.137 22.4684 92.4295 19.1469 90.2677C15.6241 87.7702 12.0101 85.4142 8.53238 82.8545C6.72888 81.527 5.75488 80.0615 7.18113 77.9465C9.95938 73.827 12.4464 69.267 17.5019 67.797Z" fill="#D92127"/>
<path d="M30.5626 79.0387C35.0891 79.1197 38.3491 81.4227 36.3484 86.387C35.8171 87.7052 33.2304 91.547 31.9279 92.0492L31.4194 91.814C28.9824 90.073 26.5364 88.3442 24.0819 86.6277C25.9281 83.6597 27.4016 80.5972 30.5626 79.0387Z" fill="#FDFCFC"/>
<path d="M18.3411 73.2267C20.8521 73.605 23.3604 75.1177 22.4869 78.0982C22.0924 79.445 20.3519 82.3905 19.1656 83.0672L18.7091 82.8952C16.7761 81.5572 15.3454 80.6112 13.3051 79.456C14.8536 77.115 16.0929 74.9295 18.3411 73.2267Z" fill="#FDFCFC"/>
<path d="M39.8454 44.1207C48.0921 43.9072 52.7881 50.883 51.5929 58.6862C53.3266 58.8157 62.3746 60.2262 63.0546 61.8755C66.2086 69.526 52.0104 64.485 48.5389 63.8272C47.4201 65.0895 46.2651 66.3192 45.0751 67.5147C47.0569 69.2637 48.9529 71.1295 50.8539 72.9675C52.2754 74.6165 52.8099 76.8415 50.4291 77.9395C49.7084 78.2705 48.8804 78.277 48.1544 77.9575C47.2581 77.5657 42.4216 73.0652 41.7831 72.2512C39.2636 69.0392 26.6541 58.6697 25.5736 55.6307C25.7021 54.6462 26.2021 53.6822 26.8811 52.9762C31.1424 48.5467 33.4101 44.7222 39.8454 44.1207Z" fill="#D92127"/>
<path d="M39.7029 49.8027C44.8824 49.7657 47.6149 54.1512 45.0124 58.677C44.2671 59.9732 42.2004 62.583 40.7981 62.976L40.2976 62.6142C37.8374 60.301 35.0949 57.472 32.5184 55.3802C34.6521 53.0137 36.5631 50.6577 39.7029 49.8027Z" fill="#FDFCFC"/>
<path d="M132.073 6.01421C133.707 6.07921 134.347 6.24546 135.346 7.66971C137.053 10.1027 138.489 12.7877 140 15.3475L148.497 29.75C148.828 26.3622 149.351 9.87221 150.937 8.21921C151.445 7.69021 152.309 7.51371 153.013 7.58046C153.861 7.66121 154.736 8.17821 155.229 8.87171C155.517 9.27721 155.566 9.79221 155.581 10.2755C155.708 14.2377 154.17 36.5752 153.254 40.0192C152.956 41.1407 152.291 41.487 151.356 42.034C150.657 41.9945 149.373 41.8685 148.936 41.2902C146.897 38.587 145.201 35.3407 143.484 32.4357C140.69 27.7745 137.843 23.145 134.943 18.5485C134.4 24.7477 133.966 30.9715 133.397 37.1657C133.287 38.1467 133.135 39.4715 132.232 40.0687C130.283 41.3575 127.736 39.6987 127.851 37.425C128.349 27.5205 128.948 17.4495 130.193 7.62596C130.293 6.83846 131.449 6.31571 132.073 6.01421Z" fill="#D92127"/>
<path d="M179.338 15.2382C182.217 15.4025 186.159 17.6342 188.939 18.7532C191.419 19.9217 194.232 20.9085 196.518 22.4082C199.436 24.3227 197.062 28.0072 194.102 27.1415C190.016 25.9462 185.689 23.6937 181.811 22.0265C180.755 24.6292 179.473 27.4157 178.344 30.009C180.471 30.8517 188.463 33.6575 188.938 35.6285C190.76 43.176 178.429 36.155 176.031 35.0407C175.672 35.98 175.226 36.9177 174.809 37.8362L172.501 42.9292C176.498 44.9735 180.835 46.446 184.753 48.628C186.114 49.2975 186.545 51.4022 185.574 52.548C183.505 54.99 178.133 51.9325 175.988 50.9317C172.8 49.4445 168.665 47.9642 166.087 45.7257C165.435 43.246 177.101 17.624 179.338 15.2382Z" fill="#D92127"/>
<path d="M166.4 11.035C167.826 11.1517 168.939 11.1505 169.959 12.2432C170.633 13.7412 168.332 21.8547 167.635 23.6625C166.208 27.3637 163.332 42.2512 160.598 44.5087C158.83 44.4517 156.362 43.8572 156.877 41.475C158.519 33.938 160.942 26.5105 162.972 19.06C163.562 16.8962 164.689 12.3527 166.4 11.035Z" fill="#D92127"/>
<path d="M224.544 246.632C238.119 245.157 237.269 253.419 237.882 262.912C238.999 280.192 237.732 280.567 220.922 281.622C216.064 281.927 208.589 282.737 203.12 283.122L165.605 286.017L50.3409 295.429C44.3279 295.582 38.1001 295.064 37.7366 287.237C37.4259 280.539 34.7516 270.207 38.4976 264.222C39.3856 262.802 42.5211 261.649 44.0856 261.457C51.7844 260.339 59.8159 259.974 67.5909 259.384L105.596 256.399C108.696 256.169 111.74 255.734 114.818 255.459L136.7 253.709C166.006 251.677 195.29 249.317 224.544 246.632Z" fill="#9C2023"/>
<path d="M51.1126 269.812C52.9346 269.719 55.4881 269.709 56.9876 270.812C63.4309 275.554 62.8759 285.242 54.7221 287.479C42.5584 289.314 40.0444 272.407 51.1126 269.812Z" fill="#FDFCFC"/>
<path d="M51.9846 272.804C58.3111 272.477 59.6124 282.519 53.7234 284.584C48.3441 284.624 46.7686 279.602 48.6931 275.132C49.2921 273.742 50.5876 273.197 51.9846 272.804Z" fill="#9C2023"/>
<path d="M84.6741 267.642C88.7819 267.242 90.9709 268.722 91.1509 272.607C91.3291 276.457 88.4414 275.607 87.8381 277.429C89.9479 279.812 91.6366 281.772 93.5869 284.314C92.0334 284.439 90.4811 284.584 88.9309 284.744C87.8079 282.804 87.1844 281.967 85.8209 280.249C84.8946 279.152 83.1926 277.199 81.6536 278.072C80.6396 279.529 81.2976 283.327 81.4564 285.242L77.6356 285.577C77.6514 280.687 76.8736 273.262 76.5576 268.144C79.2641 267.992 81.9696 267.824 84.6741 267.642Z" fill="#FDFCFC"/>
<path d="M83.7546 270.639C88.5521 270.462 88.8389 274.479 84.7624 274.819C83.5166 274.987 81.8946 275.044 80.6136 275.127L80.4634 270.912C81.4754 270.792 82.7196 270.724 83.7546 270.639Z" fill="#9C2023"/>
<path d="M99.5989 266.404C102.785 266.104 106.172 265.852 108.142 268.869C110.134 271.919 107.647 274.442 105.146 275.787C107.209 277.957 109.05 280.637 111.022 282.997L106.399 283.297C105.804 282.242 104.76 280.862 104.035 279.844C101.996 277.077 102.04 276.432 98.4234 276.577C98.4844 279.017 98.7136 281.557 98.8996 284.002C97.6971 283.997 96.5039 284.104 95.3049 284.194C94.7861 278.657 94.3839 272.407 94.0366 266.849C95.7661 266.774 97.8464 266.549 99.5989 266.404Z" fill="#FDFCFC"/>
<path d="M99.1174 269.414C100.112 269.329 101.615 269.124 102.578 269.334C105.691 270.012 106.073 271.959 103.171 273.417C101.349 273.752 99.9384 273.789 98.0971 273.877C98.0786 272.727 97.6629 270.819 98.1031 269.782C98.2339 269.474 98.6676 269.499 99.1174 269.414Z" fill="#9C2023"/>
<path d="M122.138 264.634C122.877 264.532 123.304 264.384 123.958 264.714C124.475 265.444 124.333 266.717 124.334 267.697C121.614 267.719 118.067 268.099 115.291 268.317C115.3 269.439 115.39 270.737 115.443 271.872C118.155 271.789 121.219 271.467 123.949 271.242L124.149 274.439C121.583 274.559 118.299 274.722 115.814 275.082C115.9 276.559 116.044 278.102 116.16 279.587C118.327 279.462 120.491 279.284 122.649 279.059C123.829 279.042 124.798 278.872 125.961 278.697C125.906 279.744 126 280.934 126.055 281.994C122.033 282.074 116.809 282.582 112.706 282.859C112.461 277.734 111.89 270.619 111.339 265.572L122.138 264.634Z" fill="#FDFCFC"/>
<path d="M212.559 257.674C213.744 257.559 215.727 257.309 216.762 257.737C218.837 261.294 209.739 260.814 207.839 261.094C207.869 262.252 208.019 263.654 208.114 264.829C210.634 264.772 213.789 264.447 216.347 264.252L216.607 267.427C213.819 267.562 211.032 267.712 208.244 267.884C208.352 269.414 208.507 270.987 208.639 272.519C209.924 272.327 211.684 272.237 213.014 272.129C214.822 271.989 216.577 271.267 217.982 272.072C218.534 272.804 218.379 273.712 218.369 274.694C214.232 274.929 209.427 275.487 205.209 275.827C204.802 269.999 204.263 264.207 203.938 258.369L212.559 257.674Z" fill="#FDFCFC"/>
<path d="M155.26 261.814C157.508 261.672 158.539 261.674 160.643 262.604C162.438 263.397 164.624 265.117 162.473 267.037C159.923 267.524 157.098 262.822 154.108 265.532C153.762 266.447 153.793 266.054 154.002 267.019C155.117 268.657 160.404 268.637 162.534 270.097C165.452 272.099 164.975 274.687 163.416 277.347C162.412 279.057 159.844 279.492 158.135 279.727C154.864 279.809 152.004 279.039 150.512 275.567C150.245 274.944 150.479 274.624 150.793 274.132C154.13 272.824 153.717 274.789 155.635 276.279C157.233 277.522 161.4 276.572 160.698 273.602C159.293 271.827 154.865 272.022 152.965 270.764C148.125 267.557 150.215 263.044 155.26 261.814Z" fill="#FDFCFC"/>
<path d="M132.818 263.569C135.631 263.374 138.65 263.932 140.228 266.867C140.497 267.364 140.172 267.887 139.944 268.339C139.167 268.979 138.14 268.894 137.07 268.969C136.236 267.177 135.898 266.597 133.604 266.527C132.739 266.499 132.265 266.727 131.642 267.324C129.151 272.082 141.505 268.554 141.581 275.099C141.638 279.952 138.592 281.159 134.537 281.587C130.25 281.457 128.983 279.879 127.389 276.167L131.092 275.239C131.339 276.094 131.573 277.119 132.304 277.659C133.577 278.724 136.531 278.934 137.508 277.372C139.266 274.724 135.723 273.699 133.579 273.484C129.289 273.054 126.163 270.994 128.195 266.279C128.918 264.599 131.063 263.989 132.818 263.569Z" fill="#FDFCFC"/>
<path d="M199.252 258.602C200.389 258.524 200.707 258.492 201.851 258.664C202.328 259.654 197.888 274.232 197.225 276.524C195.721 276.497 195.035 276.524 193.548 276.712C191.9 272.752 190.155 268.834 188.315 264.959L185.906 259.814L189.831 259.479C191.669 263.514 193.808 267.722 194.911 271.992C196.202 268.194 197.038 264.082 198.124 260.217C198.437 259.102 198.458 259.042 199.252 258.602Z" fill="#FDFCFC"/>
<path d="M177.75 260.394C177.89 260.369 178.507 260.372 178.689 260.367C179.269 261.187 179.214 262.422 179.329 263.539C177.589 263.514 175.812 263.667 174.072 263.782C174.483 268.534 174.841 273.292 175.145 278.054L171.446 278.179L171.26 274.472C170.904 271.559 170.809 267.324 170.519 264.177C168.813 264.267 167.054 264.407 165.344 264.524L165.12 261.384C169.266 261.144 173.595 260.734 177.75 260.394Z" fill="#FDFCFC"/>
<path d="M223.389 256.922L223.472 256.942C223.584 257.052 223.697 257.159 223.807 257.269C223.824 260.304 224.549 268.592 224.887 271.029C227.652 270.967 230.742 270.684 233.507 270.469L233.587 273.727L230.762 273.827C227.737 274.199 224.502 274.162 221.377 274.524C221.107 268.934 220.592 262.617 220.102 257.044L223.389 256.922Z" fill="#FDFCFC"/>
<path d="M143.604 262.917L147.055 262.754C147.225 266.724 147.771 270.967 147.982 274.957C148.053 276.304 148.389 278.989 148.228 280.207C146.902 280.224 145.922 280.322 144.601 280.467C144.712 274.949 143.617 268.647 143.604 262.917Z" fill="#FDFCFC"/>
<path d="M73.0561 268.672C73.5361 269.167 74.5451 283.992 74.6319 285.782C73.6586 285.817 72.3551 285.974 71.3584 286.069C70.7249 285.459 69.8814 270.922 69.7329 268.802L73.0561 268.672Z" fill="#FDFCFC"/>
<path d="M181.066 260.059C182.167 259.982 183.322 259.952 184.43 259.904C185.02 263.944 185.818 273.244 185.794 277.309L182.268 277.529C181.95 271.702 181.55 265.877 181.066 260.059Z" fill="#FDFCFC"/>
<path d="M182.006 254.807L185.634 254.682C184.64 256.122 184.116 256.709 182.901 257.977C182.282 258.407 181.187 259.002 180.5 259.399C180.817 257.407 181.054 256.582 182.006 254.807Z" fill="#FDFCFC"/>
<path d="M217.529 32.5525C220.102 31.4527 221.944 31.292 224.432 32.8875C224.867 33.1917 225.842 33.831 226.187 34.1582C228.337 35.4567 233.614 41.0887 234.599 43.0575C237.922 47.393 239.459 51.6655 238.712 57.2322C238.654 57.6772 238.589 58.1212 238.517 58.5642C244.337 59.965 249.989 60.2792 254.224 64.9702C277.339 90.5675 236.132 121.019 217.167 93.536C214.174 89.1992 214.722 83.8612 214.702 78.8622C213.654 78.6537 212.339 78.33 211.307 78.2052C204.812 77.422 199.467 73.6187 195.114 68.9532C191.539 65.123 190.191 61.9037 191.274 56.735L191.303 56.5985C192.983 55.1735 193.907 53.709 195.337 52.0705C197.425 49.6787 200.164 47.3615 202.816 45.6102C203.111 45.0992 206.484 42.242 207.099 41.7612C210.492 39.1087 213.879 34.662 217.529 32.5525ZM238.727 92.577C254.089 88.9245 250.692 69.343 237.034 70.6062C221.659 73.9377 223.462 93.6515 238.727 92.577Z" fill="#FDFCFC"/>
<path d="M226.187 34.1582C228.337 35.4567 233.614 41.0887 234.599 43.0575C237.922 47.393 239.459 51.6655 238.712 57.2322C238.654 57.6772 238.589 58.1212 238.517 58.5642C244.337 59.965 249.989 60.2792 254.224 64.9702C277.339 90.5675 236.132 121.019 217.167 93.536C214.174 89.1992 214.722 83.8612 214.702 78.8622C213.654 78.6537 212.339 78.33 211.307 78.2052C204.812 77.422 199.467 73.6187 195.114 68.9532C191.539 65.123 190.191 61.9037 191.274 56.735L191.303 56.5985C192.983 55.1735 193.907 53.709 195.337 52.0705C197.425 49.6787 200.164 47.3615 202.816 45.6102C203.247 45.6747 203.109 45.6492 203.566 45.5232C204.354 44.6222 207.742 41.9797 208.817 41.163C207.749 42.5077 206.422 43.489 205.299 44.8707L205.369 45.4045C204.972 45.9777 202.258 48.5822 201.812 48.9585C192.054 57.202 189.535 60.867 199.878 70.3442C205.802 75.7727 208.982 76.9037 217.182 76.762C216.339 84.191 216.594 90.5112 222.199 96.296C226.062 100.213 231.327 102.43 236.829 102.454C242.709 102.506 248.292 100.027 252.439 95.9022C256.474 91.8797 258.744 86.416 258.744 80.7177C258.704 75.3292 256.524 70.1775 252.687 66.3952C247.637 61.5032 242.327 60.705 235.729 60.7842C237.582 53.6522 237.004 50.4887 233.647 44.0535C233.844 44.1627 226.609 36.2495 225.352 35.1505L226.187 34.1582Z" fill="#9C2023"/>
<path d="M202.816 45.6102C203.111 45.0992 206.484 42.242 207.099 41.7612C210.492 39.1087 213.879 34.662 217.529 32.5525L217.837 33.3227L217.262 33.6377L217.352 34.1405C213.157 37.5385 209.369 41.8395 205.369 45.4045L205.299 44.8707C206.422 43.489 207.749 42.5077 208.817 41.163C207.742 41.9797 204.354 44.6222 203.566 45.5232C203.109 45.6492 203.247 45.6747 202.816 45.6102Z" fill="#9C2023"/>
<path d="M217.529 32.5525C220.102 31.4527 221.944 31.292 224.432 32.8875L223.354 33.9702C220.969 33.219 219.752 33.3432 217.352 34.1405L217.262 33.6377L217.837 33.3227L217.529 32.5525Z" fill="#9C2023"/>
<path d="M224.432 32.8875C224.867 33.1917 225.842 33.831 226.187 34.1582L225.352 35.1505C225.059 35.0252 223.709 34.1815 223.354 33.9702L224.432 32.8875Z" fill="#9C2023"/>
<path d="M236.354 64.757C245.649 64.0317 253.772 70.9817 254.489 80.277C255.209 89.5725 248.254 97.6897 238.959 98.404C229.672 99.1172 221.562 92.1695 220.844 82.8822C220.124 73.5947 227.067 65.4817 236.354 64.757ZM238.727 92.577C254.089 88.9245 250.692 69.343 237.034 70.6062C221.659 73.9377 223.462 93.6515 238.727 92.577Z" fill="#D92127"/>
<path d="M238.727 92.577C254.089 88.9245 250.692 69.343 237.034 70.6062C221.659 73.9377 223.462 93.6515 238.727 92.577ZM232.824 83.7142C235.039 84.296 236.589 86.8017 238.812 86.1865C240.254 85.4742 240.794 85.197 241.567 83.7142C245.114 76.917 241.477 76.924 235.837 77.0795C231.857 78.5557 231.534 80.2262 232.824 83.7142Z" fill="#FDFCFC"/>
<path d="M232.824 83.7142C235.039 84.296 236.589 86.8017 238.812 86.1865C240.254 85.4742 240.794 85.197 241.567 83.7142C245.114 76.917 241.477 76.924 235.837 77.0795C231.857 78.5557 231.534 80.2262 232.824 83.7142Z" fill="#FDFCFC"/>
<path d="M220.282 37.4755C223.314 37.452 228.097 43.5477 229.814 45.9322C237.214 56.208 227.987 69.9782 216.942 72.293C214.364 72.8332 212.569 72.6257 210.042 72.123C204.917 70.1242 202.753 67.2742 198.956 63.4202C198.099 62.55 197.185 61.24 197.25 59.9682C199.12 55.7092 210.574 46.9685 214.129 42.8192C215.229 41.5352 218.834 38.406 220.282 37.4755Z" fill="#D92127"/>
<path d="M220.789 44.459C223.789 46.439 227.584 51.934 226.619 55.649C224.732 62.9222 218.777 67.6622 211.279 66.4385C208.397 65.21 206.257 62.7115 204.063 60.4855C208.874 55.3127 215.564 49.3707 220.789 44.459Z" fill="#FDFCFC"/>
</svg>
